<?xml version="1.0" encoding="UTF-8" standalone="no"?>
<!DOCTYPE svg PUBLIC "-//W3C//DTD SVG 1.1//EN"
 "http://www.w3.org/Graphics/SVG/1.1/DTD/svg11.dtd">
<!-- Generated by graphviz version 2.43.0 (0)
 -->
<!-- Title: FSA Pages: 1 -->
<svg width="252pt" height="98pt"
 viewBox="0.00 0.00 252.16 98.04" xmlns="http://www.w3.org/2000/svg" xmlns:xlink="http://www.w3.org/1999/xlink">
<g id="graph0" class="graph" transform="scale(1 1) rotate(0) translate(4 94.04)">
<title>FSA</title>
<polygon fill="white" stroke="transparent" points="-4,4 -4,-94.04 248.16,-94.04 248.16,4 -4,4"/>
<text text-anchor="middle" x="122.08" y="-76.44" font-family="Times,serif" font-size="12.00">Finite&#45;State Automaton</text>
<!-- q0 -->
<g id="node1" class="node">
<title>q0</title>
<ellipse fill="none" stroke="black" cx="55.04" cy="-45.04" rx="18.08" ry="18.08"/>
<text text-anchor="middle" x="55.04" y="-42.24" font-family="Times,serif" font-size="11.00">q0</text>
</g>
<!-- qf -->
<g id="node2" class="node">
<title>qf</title>
<ellipse fill="none" stroke="black" cx="222.16" cy="-45.04" rx="18" ry="18"/>
<ellipse fill="none" stroke="black" cx="222.16" cy="-45.04" rx="22" ry="22"/>
<text text-anchor="middle" x="222.16" y="-42.24" font-family="Times,serif" font-size="11.00">qf</text>
</g>
<!-- q0&#45;&gt;qf -->
<g id="edge4" class="edge">
<title>q0&#45;&gt;qf</title>
<path fill="none" stroke="black" d="M72.69,-49.06C78.48,-50.28 85.03,-51.44 91.08,-52.04 131.36,-56.02 141.84,-55.63 182.16,-52.04 184.74,-51.81 187.4,-51.5 190.07,-51.13"/>
<polygon fill="black" stroke="black" points="190.88,-54.54 200.2,-49.51 189.78,-47.63 190.88,-54.54"/>
<text text-anchor="middle" x="136.12" y="-57.84" font-family="Times,serif" font-size="14.00">ε</text>
</g>
<!-- q1 -->
<g id="node4" class="node">
<title>q1</title>
<ellipse fill="none" stroke="black" cx="136.12" cy="-18.04" rx="18.08" ry="18.08"/>
<text text-anchor="middle" x="136.12" y="-15.24" font-family="Times,serif" font-size="11.00">q1</text>
</g>
<!-- q0&#45;&gt;q1 -->
<g id="edge2" class="edge">
<title>q0&#45;&gt;q1</title>
<path fill="none" stroke="black" d="M72.43,-39.45C83.03,-35.83 97.06,-31.03 109.16,-26.9"/>
<polygon fill="black" stroke="black" points="110.42,-30.17 118.76,-23.63 108.16,-23.55 110.42,-30.17"/>
<text text-anchor="middle" x="95.58" y="-36.84" font-family="Times,serif" font-size="14.00">a</text>
</g>
<!-- start -->
<!-- start&#45;&gt;q0 -->
<g id="edge1" class="edge">
<title>start&#45;&gt;q0</title>
<path fill="none" stroke="black" d="M1.15,-45.04C2.62,-45.04 14.54,-45.04 26.68,-45.04"/>
<polygon fill="black" stroke="black" points="26.72,-48.54 36.72,-45.04 26.72,-41.54 26.72,-48.54"/>
</g>
<!-- q1&#45;&gt;qf -->
<g id="edge3" class="edge">
<title>q1&#45;&gt;qf</title>
<path fill="none" stroke="black" d="M153.72,-23.37C164.44,-26.82 178.7,-31.4 191.34,-35.46"/>
<polygon fill="black" stroke="black" points="190.44,-38.85 201.03,-38.57 192.58,-32.18 190.44,-38.85"/>
<text text-anchor="middle" x="177.16" y="-36.84" font-family="Times,serif" font-size="14.00">b</text>
</g>
</g>
</svg>
