<?xml version="1.0" encoding="UTF-8" standalone="no"?>
<!DOCTYPE svg PUBLIC "-//W3C//DTD SVG 1.1//EN"
 "http://www.w3.org/Graphics/SVG/1.1/DTD/svg11.dtd">
<!-- Generated by graphviz version 2.43.0 (0)
 -->
<!-- Title: PDA Pages: 1 -->
<svg width="359pt" height="135pt"
 viewBox="0.00 0.00 359.16 135.04" xmlns="http://www.w3.org/2000/svg" xmlns:xlink="http://www.w3.org/1999/xlink">
<g id="graph0" class="graph" transform="scale(1 1) rotate(0) translate(4 131.04)">
<title>PDA</title>
<polygon fill="white" stroke="transparent" points="-4,4 -4,-131.04 355.16,-131.04 355.16,4 -4,4"/>
<text text-anchor="middle" x="175.58" y="-113.44" font-family="Times,serif" font-size="12.00">Push&#45;Down Automaton</text>
<!-- q0 -->
<g id="node1" class="node">
<title>q0</title>
<ellipse fill="none" stroke="black" cx="55.04" cy="-22" rx="18.08" ry="18.08"/>
<text text-anchor="middle" x="55.04" y="-19.2" font-family="Times,serif" font-size="11.00">q0</text>
</g>
<!-- q1 -->
<g id="node2" class="node">
<title>q1</title>
<ellipse fill="none" stroke="black" cx="195.12" cy="-22" rx="18.08" ry="18.08"/>
<text text-anchor="middle" x="195.12" y="-19.2" font-family="Times,serif" font-size="11.00">q1</text>
</g>
<!-- q0&#45;&gt;q1 -->
<g id="edge2" class="edge">
<title>q0&#45;&gt;q1</title>
<path fill="none" stroke="black" d="M73.25,-22C96.61,-22 138.62,-22 166.44,-22"/>
<polygon fill="black" stroke="black" points="166.69,-25.5 176.69,-22 166.69,-18.5 166.69,-25.5"/>
<text text-anchor="middle" x="125.08" y="-25.8" font-family="Times,serif" font-size="14.00">a, Z → AZ</text>
</g>
<!-- q1&#45;&gt;q1 -->
<g id="edge3" class="edge">
<title>q1&#45;&gt;q1</title>
<path fill="none" stroke="black" d="M189.41,-39.43C188.34,-49.12 190.25,-58.04 195.12,-58.04 198.17,-58.04 200.05,-54.55 200.78,-49.58"/>
<polygon fill="black" stroke="black" points="204.28,-49.45 200.83,-39.43 197.28,-49.41 204.28,-49.45"/>
<text text-anchor="middle" x="195.12" y="-61.84" font-family="Times,serif" font-size="14.00">a, A → AA</text>
</g>
<!-- q1&#45;&gt;q1 -->
<g id="edge4" class="edge">
<title>q1&#45;&gt;q1</title>
<path fill="none" stroke="black" d="M186.21,-37.77C180.09,-55.56 183.06,-76.04 195.12,-76.04 205.02,-76.04 208.79,-62.26 206.45,-47.49"/>
<polygon fill="black" stroke="black" points="209.84,-46.62 204.03,-37.77 203.05,-48.32 209.84,-46.62"/>
<text text-anchor="middle" x="195.12" y="-79.84" font-family="Times,serif" font-size="14.00">b, A → ε</text>
</g>
<!-- qf -->
<g id="node3" class="node">
<title>qf</title>
<ellipse fill="none" stroke="black" cx="329.16" cy="-22" rx="18" ry="18"/>
<ellipse fill="none" stroke="black" cx="329.16" cy="-22" rx="22" ry="22"/>
<text text-anchor="middle" x="329.16" y="-19.2" font-family="Times,serif" font-size="11.00">qf</text>
</g>
<!-- q1&#45;&gt;qf -->
<g id="edge5" class="edge">
<title>q1&#45;&gt;qf</title>
<path fill="none" stroke="black" d="M213.38,-22C234.52,-22 270.72,-22 296.82,-22"/>
<polygon fill="black" stroke="black" points="296.96,-25.5 306.96,-22 296.96,-18.5 296.96,-25.5"/>
<text text-anchor="middle" x="260.16" y="-25.8" font-family="Times,serif" font-size="14.00">ε, Z → Z</text>
</g>
<!-- start -->
<!-- start&#45;&gt;q0 -->
<g id="edge1" class="edge">
<title>start&#45;&gt;q0</title>
<path fill="none" stroke="black" d="M1.15,-22C2.62,-22 14.54,-22 26.68,-22"/>
<polygon fill="black" stroke="black" points="26.72,-25.5 36.72,-22 26.72,-18.5 26.72,-25.5"/>
</g>
</g>
</svg>
