<?xml version="1.0" encoding="UTF-8" standalone="no"?>
<!DOCTYPE svg PUBLIC "-//W3C//DTD SVG 1.1//EN"
 "http://www.w3.org/Graphics/SVG/1.1/DTD/svg11.dtd">
<!-- Generated by graphviz version 2.43.0 (0)
 -->
<!-- Title: SES_MB Pages: 1 -->
<svg width="917pt" height="613pt"
 viewBox="0.00 0.00 917.00 613.00" xmlns="http://www.w3.org/2000/svg" xmlns:xlink="http://www.w3.org/1999/xlink">
<g id="graph0" class="graph" transform="scale(1 1) rotate(0) translate(4 609)">
<title>SES_MB</title>
<polygon fill="white" stroke="transparent" points="-4,4 -4,-609 913,-609 913,4 -4,4"/>
<text text-anchor="middle" x="454.5" y="-591.4" font-family="Times,serif" font-size="12.00">Generalized SES/MB / Automata Mapping</text>
<g id="clust1" class="cluster">
<title>cluster_S</title>
<path fill="none" stroke="black" d="M68.5,-8C68.5,-8 161.5,-8 161.5,-8 167.5,-8 173.5,-14 173.5,-20 173.5,-20 173.5,-430 173.5,-430 173.5,-436 167.5,-442 161.5,-442 161.5,-442 68.5,-442 68.5,-442 62.5,-442 56.5,-436 56.5,-430 56.5,-430 56.5,-20 56.5,-20 56.5,-14 62.5,-8 68.5,-8"/>
<text text-anchor="middle" x="115" y="-428.4" font-family="Times,serif" font-size="12.00">System S (Φ)</text>
</g>
<g id="clust2" class="cluster">
<title>cluster_phi0</title>
<path fill="none" stroke="black" d="M76.5,-205C76.5,-205 153.5,-205 153.5,-205 159.5,-205 165.5,-211 165.5,-217 165.5,-217 165.5,-320 165.5,-320 165.5,-326 159.5,-332 153.5,-332 153.5,-332 76.5,-332 76.5,-332 70.5,-332 64.5,-326 64.5,-320 64.5,-320 64.5,-217 64.5,-217 64.5,-211 70.5,-205 76.5,-205"/>
<text text-anchor="middle" x="115" y="-318.4" font-family="Times,serif" font-size="12.00">subsystem φ0</text>
</g>
<g id="clust3" class="cluster">
<title>cluster_phi1</title>
<path fill="none" stroke="black" d="M76.5,-340C76.5,-340 153.5,-340 153.5,-340 159.5,-340 165.5,-346 165.5,-352 165.5,-352 165.5,-401 165.5,-401 165.5,-407 159.5,-413 153.5,-413 153.5,-413 76.5,-413 76.5,-413 70.5,-413 64.5,-407 64.5,-401 64.5,-401 64.5,-352 64.5,-352 64.5,-346 70.5,-340 76.5,-340"/>
<text text-anchor="middle" x="115" y="-399.4" font-family="Times,serif" font-size="12.00">subsystem φ1</text>
</g>
<g id="clust4" class="cluster">
<title>cluster_phi2</title>
<path fill="none" stroke="black" d="M76.5,-16C76.5,-16 153.5,-16 153.5,-16 159.5,-16 165.5,-22 165.5,-28 165.5,-28 165.5,-185 165.5,-185 165.5,-191 159.5,-197 153.5,-197 153.5,-197 76.5,-197 76.5,-197 70.5,-197 64.5,-191 64.5,-185 64.5,-185 64.5,-28 64.5,-28 64.5,-22 70.5,-16 76.5,-16"/>
<text text-anchor="middle" x="115" y="-183.4" font-family="Times,serif" font-size="12.00">subsystem φ2</text>
</g>
<g id="clust5" class="cluster">
<title>cluster_A</title>
<polygon fill="none" stroke="black" stroke-dasharray="5,2" points="718,-83 718,-210 895,-210 895,-83 718,-83"/>
<text text-anchor="middle" x="806.5" y="-196.4" font-family="Times,serif" font-size="12.00">Automata / Machines (M)</text>
</g>
<!-- phi0_entity0 -->
<g id="node1" class="node">
<title>phi0_entity0</title>
<path fill="none" stroke="black" d="M145.5,-303C145.5,-303 84.5,-303 84.5,-303 78.5,-303 72.5,-297 72.5,-291 72.5,-291 72.5,-279 72.5,-279 72.5,-273 78.5,-267 84.5,-267 84.5,-267 145.5,-267 145.5,-267 151.5,-267 157.5,-273 157.5,-279 157.5,-279 157.5,-291 157.5,-291 157.5,-297 151.5,-303 145.5,-303"/>
<text text-anchor="middle" x="115" y="-282.2" font-family="Times,serif" font-size="11.00">phi0_entity0</text>
</g>
<!-- phi0_entity0_comp0 -->
<g id="node7" class="node">
<title>phi0_entity0_comp0</title>
<polygon fill="none" stroke="black" points="481.5,-308 478.5,-312 457.5,-312 454.5,-308 371.5,-308 371.5,-272 481.5,-272 481.5,-308"/>
<text text-anchor="middle" x="426.5" y="-287.2" font-family="Times,serif" font-size="11.00">ε00 (component)</text>
</g>
<!-- phi0_entity0&#45;&gt;phi0_entity0_comp0 -->
<g id="edge1" class="edge">
<title>phi0_entity0&#45;&gt;phi0_entity0_comp0</title>
<path fill="none" stroke="black" d="M157.74,-285.67C209.99,-286.52 300.04,-287.97 361.14,-288.96"/>
<polygon fill="black" stroke="black" points="361.39,-292.46 371.44,-289.13 361.5,-285.47 361.39,-292.46"/>
<text text-anchor="middle" x="278.5" y="-291.8" font-family="Times,serif" font-size="14.00">contains</text>
</g>
<!-- phi0_entity1 -->
<g id="node2" class="node">
<title>phi0_entity1</title>
<path fill="none" stroke="black" d="M145.5,-249C145.5,-249 84.5,-249 84.5,-249 78.5,-249 72.5,-243 72.5,-237 72.5,-237 72.5,-225 72.5,-225 72.5,-219 78.5,-213 84.5,-213 84.5,-213 145.5,-213 145.5,-213 151.5,-213 157.5,-219 157.5,-225 157.5,-225 157.5,-237 157.5,-237 157.5,-243 151.5,-249 145.5,-249"/>
<text text-anchor="middle" x="115" y="-228.2" font-family="Times,serif" font-size="11.00">phi0_entity1</text>
</g>
<!-- phi0_entity1_comp0 -->
<g id="node8" class="node">
<title>phi0_entity1_comp0</title>
<polygon fill="none" stroke="black" points="481.5,-184 478.5,-188 457.5,-188 454.5,-184 371.5,-184 371.5,-148 481.5,-148 481.5,-184"/>
<text text-anchor="middle" x="426.5" y="-163.2" font-family="Times,serif" font-size="11.00">ε01 (component)</text>
</g>
<!-- phi0_entity1&#45;&gt;phi0_entity1_comp0 -->
<g id="edge2" class="edge">
<title>phi0_entity1&#45;&gt;phi0_entity1_comp0</title>
<path fill="none" stroke="black" d="M157.58,-225.48C180.12,-221.19 207.82,-213.74 230,-201 239.81,-195.37 237.77,-187.82 248,-183 283.04,-166.48 326.24,-162.05 361.25,-161.84"/>
<polygon fill="black" stroke="black" points="361.34,-165.34 371.36,-161.89 361.38,-158.34 361.34,-165.34"/>
<text text-anchor="middle" x="278.5" y="-186.8" font-family="Times,serif" font-size="14.00">contains</text>
</g>
<!-- phi1_entity0 -->
<g id="node3" class="node">
<title>phi1_entity0</title>
<path fill="none" stroke="black" d="M145.5,-384C145.5,-384 84.5,-384 84.5,-384 78.5,-384 72.5,-378 72.5,-372 72.5,-372 72.5,-360 72.5,-360 72.5,-354 78.5,-348 84.5,-348 84.5,-348 145.5,-348 145.5,-348 151.5,-348 157.5,-354 157.5,-360 157.5,-360 157.5,-372 157.5,-372 157.5,-378 151.5,-384 145.5,-384"/>
<text text-anchor="middle" x="115" y="-363.2" font-family="Times,serif" font-size="11.00">phi1_entity0</text>
</g>
<!-- phi1_entity0_comp0 -->
<g id="node9" class="node">
<title>phi1_entity0_comp0</title>
<polygon fill="none" stroke="black" points="481.5,-369 478.5,-373 457.5,-373 454.5,-369 371.5,-369 371.5,-333 481.5,-333 481.5,-369"/>
<text text-anchor="middle" x="426.5" y="-348.2" font-family="Times,serif" font-size="11.00">ε10 (component)</text>
</g>
<!-- phi1_entity0&#45;&gt;phi1_entity0_comp0 -->
<g id="edge3" class="edge">
<title>phi1_entity0&#45;&gt;phi1_entity0_comp0</title>
<path fill="none" stroke="black" d="M157.74,-363.98C209.99,-361.44 300.04,-357.08 361.14,-354.12"/>
<polygon fill="black" stroke="black" points="361.62,-357.6 371.44,-353.62 361.28,-350.61 361.62,-357.6"/>
<text text-anchor="middle" x="278.5" y="-362.8" font-family="Times,serif" font-size="14.00">contains</text>
</g>
<!-- phi2_entity0 -->
<g id="node4" class="node">
<title>phi2_entity0</title>
<path fill="none" stroke="black" d="M145.5,-114C145.5,-114 84.5,-114 84.5,-114 78.5,-114 72.5,-108 72.5,-102 72.5,-102 72.5,-90 72.5,-90 72.5,-84 78.5,-78 84.5,-78 84.5,-78 145.5,-78 145.5,-78 151.5,-78 157.5,-84 157.5,-90 157.5,-90 157.5,-102 157.5,-102 157.5,-108 151.5,-114 145.5,-114"/>
<text text-anchor="middle" x="115" y="-93.2" font-family="Times,serif" font-size="11.00">phi2_entity0</text>
</g>
<!-- phi2_entity0_comp0 -->
<g id="node10" class="node">
<title>phi2_entity0_comp0</title>
<polygon fill="none" stroke="black" points="481.5,-114 478.5,-118 457.5,-118 454.5,-114 371.5,-114 371.5,-78 481.5,-78 481.5,-114"/>
<text text-anchor="middle" x="426.5" y="-93.2" font-family="Times,serif" font-size="11.00">ε20 (component)</text>
</g>
<!-- phi2_entity0&#45;&gt;phi2_entity0_comp0 -->
<g id="edge4" class="edge">
<title>phi2_entity0&#45;&gt;phi2_entity0_comp0</title>
<path fill="none" stroke="black" d="M157.74,-96C209.99,-96 300.04,-96 361.14,-96"/>
<polygon fill="black" stroke="black" points="361.44,-99.5 371.44,-96 361.44,-92.5 361.44,-99.5"/>
<text text-anchor="middle" x="278.5" y="-99.8" font-family="Times,serif" font-size="14.00">contains</text>
</g>
<!-- phi2_entity1 -->
<g id="node5" class="node">
<title>phi2_entity1</title>
<path fill="none" stroke="black" d="M145.5,-60C145.5,-60 84.5,-60 84.5,-60 78.5,-60 72.5,-54 72.5,-48 72.5,-48 72.5,-36 72.5,-36 72.5,-30 78.5,-24 84.5,-24 84.5,-24 145.5,-24 145.5,-24 151.5,-24 157.5,-30 157.5,-36 157.5,-36 157.5,-48 157.5,-48 157.5,-54 151.5,-60 145.5,-60"/>
<text text-anchor="middle" x="115" y="-39.2" font-family="Times,serif" font-size="11.00">phi2_entity1</text>
</g>
<!-- phi2_entity1_comp0 -->
<g id="node11" class="node">
<title>phi2_entity1_comp0</title>
<polygon fill="none" stroke="black" points="481.5,-60 478.5,-64 457.5,-64 454.5,-60 371.5,-60 371.5,-24 481.5,-24 481.5,-60"/>
<text text-anchor="middle" x="426.5" y="-39.2" font-family="Times,serif" font-size="11.00">ε21 (component)</text>
</g>
<!-- phi2_entity1&#45;&gt;phi2_entity1_comp0 -->
<g id="edge5" class="edge">
<title>phi2_entity1&#45;&gt;phi2_entity1_comp0</title>
<path fill="none" stroke="black" d="M157.74,-42C209.99,-42 300.04,-42 361.14,-42"/>
<polygon fill="black" stroke="black" points="361.44,-45.5 371.44,-42 361.44,-38.5 361.44,-45.5"/>
<text text-anchor="middle" x="278.5" y="-45.8" font-family="Times,serif" font-size="14.00">contains</text>
</g>
<!-- phi2_entity2 -->
<g id="node6" class="node">
<title>phi2_entity2</title>
<path fill="none" stroke="black" d="M145.5,-168C145.5,-168 84.5,-168 84.5,-168 78.5,-168 72.5,-162 72.5,-156 72.5,-156 72.5,-144 72.5,-144 72.5,-138 78.5,-132 84.5,-132 84.5,-132 145.5,-132 145.5,-132 151.5,-132 157.5,-138 157.5,-144 157.5,-144 157.5,-156 157.5,-156 157.5,-162 151.5,-168 145.5,-168"/>
<text text-anchor="middle" x="115" y="-147.2" font-family="Times,serif" font-size="11.00">phi2_entity2</text>
</g>
<!-- phi2_entity2_comp0 -->
<g id="node12" class="node">
<title>phi2_entity2_comp0</title>
<polygon fill="none" stroke="black" points="481.5,-244 478.5,-248 457.5,-248 454.5,-244 371.5,-244 371.5,-208 481.5,-208 481.5,-244"/>
<text text-anchor="middle" x="426.5" y="-223.2" font-family="Times,serif" font-size="11.00">ε22 (component)</text>
</g>
<!-- phi2_entity2&#45;&gt;phi2_entity2_comp0 -->
<g id="edge6" class="edge">
<title>phi2_entity2&#45;&gt;phi2_entity2_comp0</title>
<path fill="none" stroke="black" d="M157.56,-167.45C183.23,-177.63 217.07,-190.02 248,-198 284.96,-207.54 327.13,-214.36 361.09,-218.87"/>
<polygon fill="black" stroke="black" points="360.99,-222.39 371.35,-220.2 361.89,-215.45 360.99,-222.39"/>
<text text-anchor="middle" x="278.5" y="-213.8" font-family="Times,serif" font-size="14.00">contains</text>
</g>
<!-- MB -->
<g id="node13" class="node">
<title>MB</title>
<polygon fill="none" stroke="black" points="909,-312 704,-312 704,-308 700,-308 700,-304 704,-304 704,-284 700,-284 700,-280 704,-280 704,-276 909,-276 909,-312"/>
<polyline fill="none" stroke="black" points="704,-308 708,-308 708,-304 704,-304 "/>
<polyline fill="none" stroke="black" points="704,-284 708,-284 708,-280 704,-280 "/>
<text text-anchor="middle" x="806.5" y="-297.2" font-family="Times,serif" font-size="11.00">Model Base (MB)</text>
<text text-anchor="middle" x="806.5" y="-285.2" font-family="Times,serif" font-size="11.00">(groups components into models)</text>
</g>
<!-- phi0_entity0_comp0&#45;&gt;MB -->
<g id="edge7" class="edge">
<title>phi0_entity0_comp0&#45;&gt;MB</title>
<path fill="none" stroke="black" d="M481.66,-290.57C536.72,-291.16 623.65,-292.08 693.58,-292.82"/>
<polygon fill="black" stroke="black" points="693.74,-296.32 703.77,-292.92 693.81,-289.32 693.74,-296.32"/>
<text text-anchor="middle" x="615" y="-295.8" font-family="Times,serif" font-size="14.00">grouped_in (MB)</text>
</g>
<!-- machine1 -->
<g id="node19" class="node">
<title>machine1</title>
<polygon fill="none" stroke="black" points="887,-127 884,-131 863,-131 860,-127 726,-127 726,-91 887,-91 887,-127"/>
<text text-anchor="middle" x="806.5" y="-106.2" font-family="Times,serif" font-size="11.00">M1: Finite State Machine</text>
</g>
<!-- phi0_entity1_comp0&#45;&gt;machine1 -->
<g id="edge14" class="edge">
<title>phi0_entity1_comp0&#45;&gt;machine1</title>
<path fill="none" stroke="black" d="M481.54,-153.35C501.14,-149.04 523.5,-144.45 544,-141 600.86,-131.44 665.13,-123.54 715.73,-117.97"/>
<polygon fill="black" stroke="black" points="716.42,-121.42 725.99,-116.86 715.67,-114.46 716.42,-121.42"/>
<text text-anchor="middle" x="615" y="-144.8" font-family="Times,serif" font-size="14.00">implements</text>
</g>
<!-- phi1_entity0_comp0&#45;&gt;MB -->
<g id="edge8" class="edge">
<title>phi1_entity0_comp0&#45;&gt;MB</title>
<path fill="none" stroke="black" d="M481.66,-342.83C536.72,-334.53 623.65,-321.42 693.58,-310.88"/>
<polygon fill="black" stroke="black" points="694.41,-314.29 703.77,-309.34 693.36,-307.37 694.41,-314.29"/>
</g>
<!-- M_eps -->
<g id="node15" class="node">
<title>M_eps</title>
<polygon fill="none" stroke="black" points="901,-60 706,-60 706,-24 907,-24 907,-54 901,-60"/>
<polyline fill="none" stroke="black" points="901,-60 901,-54 "/>
<polyline fill="none" stroke="black" points="907,-54 901,-54 "/>
<text text-anchor="middle" x="806.5" y="-45.2" font-family="Times,serif" font-size="11.00">M:(ε) → Cε</text>
<text text-anchor="middle" x="806.5" y="-33.2" font-family="Times,serif" font-size="11.00">(mapping: component → criteria)</text>
</g>
<!-- phi2_entity1_comp0&#45;&gt;M_eps -->
<g id="edge11" class="edge">
<title>phi2_entity1_comp0&#45;&gt;M_eps</title>
<path fill="none" stroke="black" d="M481.66,-42C537.21,-42 625.19,-42 695.43,-42"/>
<polygon fill="black" stroke="black" points="695.66,-45.5 705.66,-42 695.66,-38.5 695.66,-45.5"/>
<text text-anchor="middle" x="615" y="-45.8" font-family="Times,serif" font-size="14.00">maps_to</text>
</g>
<!-- phi2_entity2_comp0&#45;&gt;MB -->
<g id="edge9" class="edge">
<title>phi2_entity2_comp0&#45;&gt;MB</title>
<path fill="none" stroke="black" d="M481.73,-235.78C501.35,-239.32 523.67,-243.34 544,-247 593.59,-255.93 648.47,-265.79 695.1,-274.17"/>
<polygon fill="black" stroke="black" points="694.76,-277.67 705.23,-275.99 696,-270.78 694.76,-277.67"/>
</g>
<!-- M_mu -->
<g id="node16" class="node">
<title>M_mu</title>
<polygon fill="none" stroke="black" points="886.5,-254 720.5,-254 720.5,-218 892.5,-218 892.5,-248 886.5,-254"/>
<polyline fill="none" stroke="black" points="886.5,-254 886.5,-248 "/>
<polyline fill="none" stroke="black" points="892.5,-248 886.5,-248 "/>
<text text-anchor="middle" x="806.5" y="-239.2" font-family="Times,serif" font-size="11.00">Mμ:(ε) → M</text>
<text text-anchor="middle" x="806.5" y="-227.2" font-family="Times,serif" font-size="11.00">(component → machine set)</text>
</g>
<!-- phi2_entity2_comp0&#45;&gt;M_mu -->
<g id="edge12" class="edge">
<title>phi2_entity2_comp0&#45;&gt;M_mu</title>
<path fill="none" stroke="black" d="M481.97,-227.1C534.29,-228.2 615.55,-230 686,-232 693.89,-232.22 702.08,-232.47 710.29,-232.73"/>
<polygon fill="black" stroke="black" points="710.21,-236.22 720.31,-233.04 710.43,-229.23 710.21,-236.22"/>
<text text-anchor="middle" x="615" y="-235.8" font-family="Times,serif" font-size="14.00">maps_to (automata)</text>
</g>
<!-- machine0 -->
<g id="node18" class="node">
<title>machine0</title>
<polygon fill="none" stroke="black" points="887,-181 884,-185 863,-185 860,-181 726,-181 726,-145 887,-145 887,-181"/>
<text text-anchor="middle" x="806.5" y="-166.2" font-family="Times,serif" font-size="11.00">M0: Finite State Machine</text>
<text text-anchor="middle" x="806.5" y="-154.2" font-family="Times,serif" font-size="11.00">(states, transitions)</text>
</g>
<!-- phi2_entity2_comp0&#45;&gt;machine0 -->
<g id="edge13" class="edge">
<title>phi2_entity2_comp0&#45;&gt;machine0</title>
<path fill="none" stroke="black" d="M481.66,-216.97C542.68,-206.8 642.85,-190.11 715.64,-177.98"/>
<polygon fill="black" stroke="black" points="716.43,-181.39 725.72,-176.3 715.28,-174.49 716.43,-181.39"/>
<text text-anchor="middle" x="615" y="-208.8" font-family="Times,serif" font-size="14.00">implements</text>
</g>
<!-- M_phi -->
<g id="node14" class="node">
<title>M_phi</title>
<polygon fill="none" stroke="black" points="520,-486 327,-486 327,-450 526,-450 526,-480 520,-486"/>
<polyline fill="none" stroke="black" points="520,-486 520,-480 "/>
<polyline fill="none" stroke="black" points="526,-480 520,-480 "/>
<text text-anchor="middle" x="426.5" y="-471.2" font-family="Times,serif" font-size="11.00">M:(φ) → Cφ</text>
<text text-anchor="middle" x="426.5" y="-459.2" font-family="Times,serif" font-size="11.00">(mapping: subsystem → criteria)</text>
</g>
<!-- cluster_phi0 -->
<g id="node17" class="node">
<title>cluster_phi0</title>
<polygon fill="none" stroke="black" points="157.5,-486 154.5,-490 133.5,-490 130.5,-486 72.5,-486 72.5,-450 157.5,-450 157.5,-486"/>
<text text-anchor="middle" x="115" y="-465.2" font-family="Times,serif" font-size="11.00">cluster_phi0</text>
</g>
<!-- cluster_phi0&#45;&gt;M_phi -->
<g id="edge10" class="edge">
<title>cluster_phi0&#45;&gt;M_phi</title>
<path fill="none" stroke="black" d="M157.74,-468C198.36,-468 261.82,-468 316.77,-468"/>
<polygon fill="black" stroke="black" points="316.92,-471.5 326.92,-468 316.92,-464.5 316.92,-471.5"/>
<text text-anchor="middle" x="278.5" y="-471.8" font-family="Times,serif" font-size="14.00">maps_to</text>
</g>
<!-- legend -->
<g id="node20" class="node">
<title>legend</title>
<polygon fill="none" stroke="black" points="8,-562 8,-580 95,-580 95,-562 8,-562"/>
<text text-anchor="start" x="11" y="-569.2" font-family="Times,serif" font-weight="bold" font-size="11.00">Rounded box</text>
<polygon fill="none" stroke="black" points="95,-562 95,-580 222,-580 222,-562 95,-562"/>
<text text-anchor="start" x="100.5" y="-568.2" font-family="Times,serif" font-size="11.00">Structures / clusters</text>
<polygon fill="none" stroke="black" points="8,-544 8,-562 95,-562 95,-544 8,-544"/>
<text text-anchor="start" x="31.5" y="-551.2" font-family="Times,serif" font-weight="bold" font-size="11.00">Folder</text>
<polygon fill="none" stroke="black" points="95,-544 95,-562 222,-562 222,-544 95,-544"/>
<text text-anchor="start" x="136" y="-550.2" font-family="Times,serif" font-size="11.00">Entities</text>
<polygon fill="none" stroke="black" points="8,-526 8,-544 95,-544 95,-526 8,-526"/>
<text text-anchor="start" x="15" y="-533.2" font-family="Times,serif" font-weight="bold" font-size="11.00">Component</text>
<polygon fill="none" stroke="black" points="95,-526 95,-544 222,-544 222,-526 95,-526"/>
<text text-anchor="start" x="98" y="-532.2" font-family="Times,serif" font-size="11.00">Model Base grouping</text>
<polygon fill="none" stroke="black" points="8,-508 8,-526 95,-526 95,-508 8,-508"/>
<text text-anchor="start" x="36.5" y="-515.2" font-family="Times,serif" font-weight="bold" font-size="11.00">Note</text>
<polygon fill="none" stroke="black" points="95,-508 95,-526 222,-526 222,-508 95,-508"/>
<text text-anchor="start" x="106.5" y="-514.2" font-family="Times,serif" font-size="11.00">Mapping functions</text>
</g>
</g>
</svg>
